<svg xmlns="http://www.w3.org/2000/svg" width="24" height="24" viewBox="0 0 24 24"><path d="M4,22 5,22 5,23 4,23 M4,21 5,21 5,22 4,22 M4,20 5,20 5,21 4,21 M4,19 5,19 5,20 4,20 M4,18 5,18 5,19 4,19 M4,17 5,17 5,18 4,18 M4,16 5,16 5,17 4,17 M4,15 5,15 5,16 4,16 M4,14 5,14 5,15 4,15 M4,13 5,13 5,14 4,14 M4,12 5,12 5,13 4,13 M4,11 5,11 5,12 4,12 M4,10 5,10 5,11 4,11 M4,8 5,8 5,9 4,9 M4,9 5,9 5,10 4,10 M5,4 6,4 6,5 5,5 M6,4 7,4 7,5 6,5 M7,4 8,4 8,5 7,5 M8,4 9,4 9,5 8,5 M4,7 5,7 5,8 4,8 M4,6 5,6 5,7 4,7 M4,5 5,5 5,6 4,6 M4,3 5,3 5,4 4,4 M5,2 6,2 6,3 5,3 M4,1 5,1 5,2 4,2 M3,2 4,2 4,3 3,3 M9,4 10,4 10,5 9,5 M10,5 11,5 11,6 10,6 M11,5 12,5 12,6 11,6 M12,5 13,5 13,6 12,6 M13,5 14,5 14,6 13,6 M14,5 15,5 15,6 14,6 M15,6 16,6 16,7 15,7 M16,6 17,6 17,7 16,7 M17,6 18,6 18,7 17,7 M18,7 19,7 19,8 18,8 M19,7 20,7 20,8 19,8 M20,7 21,7 21,8 20,8 M17,8 18,8 18,9 17,9 M16,8 17,8 17,9 16,9 M15,9 16,9 16,10 15,10 M14,9 15,9 15,10 14,10 M13,9 14,9 14,10 13,10 M12,9 13,9 13,10 12,10 M9,11 10,11 10,12 9,12 M8,11 9,11 9,12 8,12 M7,12 8,12 8,13 7,13 M10,11 11,11 11,12 10,12 M12,10 13,10 13,11 12,11 M16,9 17,9 17,10 16,10 M11,10 12,10 12,11 11,11 M6,12 7,12 7,13 6,13 M5,12 6,12 6,13 5,13 " fill="#000000"></path><path d="M5,5 6,5 6,6 5,6 M5,6 6,6 6,7 5,7 M5,7 6,7 6,8 5,8 M5,8 6,8 6,9 5,9 M5,9 6,9 6,10 5,10 M5,10 6,10 6,11 5,11 M5,11 6,11 6,12 5,12 M6,11 7,11 7,12 6,12 M7,11 8,11 8,12 7,12 M7,10 8,10 8,11 7,11 M7,9 8,9 8,10 7,10 M7,8 8,8 8,9 7,9 M7,7 8,7 8,8 7,8 M7,6 8,6 8,7 7,7 M7,5 8,5 8,6 7,6 M6,5 7,5 7,6 6,6 M6,6 7,6 7,7 6,7 M6,7 7,7 7,8 6,8 M6,8 7,8 7,9 6,9 M6,9 7,9 7,10 6,10 M6,10 7,10 7,11 6,11 M8,10 9,10 9,11 8,11 M9,10 10,10 10,11 9,11 M10,10 11,10 11,11 10,11 M10,9 11,9 11,10 10,10 M10,8 11,8 11,9 10,9 M10,7 11,7 11,8 10,8 M10,6 11,6 11,7 10,7 M9,6 10,6 10,7 9,7 M8,6 9,6 9,7 8,7 M8,7 9,7 9,8 8,8 M8,8 9,8 9,9 8,9 M8,9 9,9 9,10 8,10 M9,9 10,9 10,10 9,10 M9,8 10,8 10,9 9,9 M9,7 10,7 10,8 9,8 M9,5 10,5 10,6 9,6 M8,5 9,5 9,6 8,6 M11,6 12,6 12,7 11,7 M11,9 12,9 12,10 11,10 M11,8 12,8 12,9 11,9 M12,8 13,8 13,9 12,9 M13,8 14,8 14,9 13,9 M14,8 15,8 15,9 14,9 M15,8 16,8 16,9 15,9 M15,7 16,7 16,8 15,8 M14,7 15,7 15,8 14,8 M13,7 14,7 14,8 13,8 M12,7 13,7 13,8 12,8 M11,7 12,7 12,8 11,8 M12,6 13,6 13,7 12,7 M13,6 14,6 14,7 13,7 M14,6 15,6 15,7 14,7 M16,7 17,7 17,8 16,8 M17,7 18,7 18,8 17,8 " fill="#0fff2b"></path><path d="M1,14 2,14 2,15 1,15 M1,15 2,15 2,16 1,16 M1,16 2,16 2,17 1,17 M1,17 2,17 2,18 1,18 M1,18 2,18 2,19 1,19 M1,19 2,19 2,20 1,20 M1,20 2,20 2,21 1,21 M1,21 2,21 2,22 1,22 M1,22 2,22 2,23 1,23 M1,23 2,23 2,24 1,24 M2,23 3,23 3,24 2,24 M3,23 4,23 4,24 3,24 M4,23 5,23 5,24 4,24 M5,23 6,23 6,24 5,24 M6,23 7,23 7,24 6,24 M7,23 8,23 8,24 7,24 M8,23 9,23 9,24 8,24 M9,23 10,23 10,24 9,24 M10,23 11,23 11,24 10,24 M11,23 12,23 12,24 11,24 M12,23 13,23 13,24 12,24 M13,23 14,23 14,24 13,24 M14,23 15,23 15,24 14,24 M15,23 16,23 16,24 15,24 M16,23 17,23 17,24 16,24 M17,23 18,23 18,24 17,24 M18,23 19,23 19,24 18,24 M22,23 23,23 23,24 22,24 M23,23 24,23 24,24 23,24 M22,17 23,17 23,18 22,18 M22,16 23,16 23,17 22,17 M22,15 23,15 23,16 22,16 M23,12 24,12 24,13 23,13 M23,11 24,11 24,12 23,12 M23,10 24,10 24,11 23,11 M23,9 24,9 24,10 23,10 M23,8 24,8 24,9 23,9 M23,7 24,7 24,8 23,8 M23,6 24,6 24,7 23,7 M23,5 24,5 24,6 23,6 M23,4 24,4 24,5 23,5 M23,0 24,0 24,1 23,1 M22,0 23,0 23,1 22,1 M21,0 22,0 22,1 21,1 M20,0 21,0 21,1 20,1 M19,0 20,0 20,1 19,1 M18,0 19,0 19,1 18,1 M17,0 18,0 18,1 17,1 M16,0 17,0 17,1 16,1 M15,0 16,0 16,1 15,1 M14,0 15,0 15,1 14,1 M13,0 14,0 14,1 13,1 M12,0 13,0 13,1 12,1 M11,0 12,0 12,1 11,1 M10,0 11,0 11,1 10,1 M9,0 10,0 10,1 9,1 M8,0 9,0 9,1 8,1 M7,0 8,0 8,1 7,1 M6,0 7,0 7,1 6,1 M5,0 6,0 6,1 5,1 M4,0 5,0 5,1 4,1 M3,1 4,1 4,2 3,2 M2,1 3,1 3,2 2,2 M1,1 2,1 2,2 1,2 M0,1 1,1 1,2 0,2 M3,0 4,0 4,1 3,1 M2,0 3,0 3,1 2,1 M1,0 2,0 2,1 1,1 M0,0 1,0 1,1 0,1 M0,2 1,2 1,3 0,3 M0,3 1,3 1,4 0,4 M0,4 1,4 1,5 0,5 M0,5 1,5 1,6 0,6 M0,6 1,6 1,7 0,7 M0,7 1,7 1,8 0,8 M0,8 1,8 1,9 0,9 M0,9 1,9 1,10 0,10 M0,10 1,10 1,11 0,11 M0,11 1,11 1,12 0,12 M0,12 1,12 1,13 0,13 M0,13 1,13 1,14 0,14 M0,14 1,14 1,15 0,15 M0,15 1,15 1,16 0,16 M0,16 1,16 1,17 0,17 M0,17 1,17 1,18 0,18 M0,18 1,18 1,19 0,19 M0,19 1,19 1,20 0,20 M0,20 1,20 1,21 0,21 M0,21 1,21 1,22 0,22 M0,22 1,22 1,23 0,23 M0,23 1,23 1,24 0,24 M3,22 4,22 4,23 3,23 M3,21 4,21 4,22 3,22 M3,20 4,20 4,21 3,21 M3,19 4,19 4,20 3,20 M3,18 4,18 4,19 3,19 M3,17 4,17 4,18 3,18 M3,16 4,16 4,17 3,17 M3,15 4,15 4,16 3,16 M3,14 4,14 4,15 3,15 M3,13 4,13 4,14 3,14 M3,12 4,12 4,13 3,13 M2,12 3,12 3,13 2,13 M2,11 3,11 3,12 2,12 M2,10 3,10 3,11 2,11 M2,9 3,9 3,10 2,10 M2,8 3,8 3,9 2,9 M2,7 3,7 3,8 2,8 M2,6 3,6 3,7 2,7 M2,5 3,5 3,6 2,6 M2,4 3,4 3,5 2,5 M2,3 3,3 3,4 2,4 M2,2 3,2 3,3 2,3 M1,2 2,2 2,3 1,3 M1,3 2,3 2,4 1,4 M1,4 2,4 2,5 1,5 M1,5 2,5 2,6 1,6 M1,6 2,6 2,7 1,7 M1,7 2,7 2,8 1,8 M1,8 2,8 2,9 1,9 M1,9 2,9 2,10 1,10 M1,10 2,10 2,11 1,11 M1,11 2,11 2,12 1,12 M1,12 2,12 2,13 1,13 M1,13 2,13 2,14 1,14 M2,13 3,13 3,14 2,14 M2,14 3,14 3,15 2,15 M2,15 3,15 3,16 2,16 M2,16 3,16 3,17 2,17 M2,17 3,17 3,18 2,18 M2,18 3,18 3,19 2,19 M2,19 3,19 3,20 2,20 M2,20 3,20 3,21 2,21 M2,21 3,21 3,22 2,22 M2,22 3,22 3,23 2,23 M3,11 4,11 4,12 3,12 M3,10 4,10 4,11 3,11 M3,9 4,9 4,10 3,10 M3,8 4,8 4,9 3,9 M3,7 4,7 4,8 3,8 M3,6 4,6 4,7 3,7 M3,5 4,5 4,6 3,6 M3,4 4,4 4,5 3,5 M3,3 4,3 4,4 3,4 M4,4 5,4 5,5 4,5 M4,2 5,2 5,3 4,3 M5,1 6,1 6,2 5,2 M6,1 7,1 7,2 6,2 M7,1 8,1 8,2 7,2 M8,1 9,1 9,2 8,2 M9,1 10,1 10,2 9,2 M10,1 11,1 11,2 10,2 M11,1 12,1 12,2 11,2 M12,1 13,1 13,2 12,2 M13,1 14,1 14,2 13,2 M14,1 15,1 15,2 14,2 M15,1 16,1 16,2 15,2 M16,1 17,1 17,2 16,2 M17,1 18,1 18,2 17,2 M18,1 19,1 19,2 18,2 M19,1 20,1 20,2 19,2 M20,1 21,1 21,2 20,2 M21,1 22,1 22,2 21,2 M22,1 23,1 23,2 22,2 M23,1 24,1 24,2 23,2 M23,2 24,2 24,3 23,3 M23,3 24,3 24,4 23,4 M22,3 23,3 23,4 22,4 M22,4 23,4 23,5 22,5 M22,5 23,5 23,6 22,6 M22,6 23,6 23,7 22,7 M22,7 23,7 23,8 22,8 M22,8 23,8 23,9 22,9 M22,9 23,9 23,10 22,10 M22,10 23,10 23,11 22,11 M22,11 23,11 23,12 22,12 M22,12 23,12 23,13 22,13 M21,11 22,11 22,12 21,12 M21,10 22,10 22,11 21,11 M21,9 22,9 22,10 21,10 M21,8 22,8 22,9 21,9 M21,7 22,7 22,8 21,8 M21,5 22,5 22,6 21,6 M21,4 22,4 22,5 21,5 M22,2 23,2 23,3 22,3 M21,2 22,2 22,3 21,3 M21,3 22,3 22,4 21,4 M19,2 20,2 20,3 19,3 M18,2 19,2 19,3 18,3 M17,2 18,2 18,3 17,3 M16,2 17,2 17,3 16,3 M15,2 16,2 16,3 15,3 M14,2 15,2 15,3 14,3 M13,2 14,2 14,3 13,3 M12,2 13,2 13,3 12,3 M11,2 12,2 12,3 11,3 M10,2 11,2 11,3 10,3 M9,2 10,2 10,3 9,3 M8,2 9,2 9,3 8,3 M7,2 8,2 8,3 7,3 M6,2 7,2 7,3 6,3 M5,3 6,3 6,4 5,4 M6,3 7,3 7,4 6,4 M7,3 8,3 8,4 7,4 M8,3 9,3 9,4 8,4 M9,3 10,3 10,4 9,4 M10,3 11,3 11,4 10,4 M11,3 12,3 12,4 11,4 M12,3 13,3 13,4 12,4 M13,3 14,3 14,4 13,4 M14,3 15,3 15,4 14,4 M15,3 16,3 16,4 15,4 M16,3 17,3 17,4 16,4 M17,3 18,3 18,4 17,4 M18,3 19,3 19,4 18,4 M19,3 20,3 20,4 19,4 M20,3 21,3 21,4 20,4 M20,2 21,2 21,3 20,3 M10,4 11,4 11,5 10,5 M11,4 12,4 12,5 11,5 M12,4 13,4 13,5 12,5 M13,4 14,4 14,5 13,5 M14,4 15,4 15,5 14,5 M15,4 16,4 16,5 15,5 M16,4 17,4 17,5 16,5 M17,4 18,4 18,5 17,5 M18,4 19,4 19,5 18,5 M19,4 20,4 20,5 19,5 M20,4 21,4 21,5 20,5 M15,5 16,5 16,6 15,6 M16,5 17,5 17,6 16,6 M17,5 18,5 18,6 17,6 M18,5 19,5 19,6 18,6 M19,5 20,5 20,6 19,6 M20,5 21,5 21,6 20,6 M18,6 19,6 19,7 18,7 M19,6 20,6 20,7 19,7 M20,6 21,6 21,7 20,7 M21,6 22,6 22,7 21,7 M18,8 19,8 19,9 18,9 M19,8 20,8 20,9 19,9 M20,8 21,8 21,9 20,9 M17,9 18,9 18,10 17,10 M18,9 19,9 19,10 18,10 M19,9 20,9 20,10 19,10 M20,9 21,9 21,10 20,10 M13,10 14,10 14,11 13,11 M14,10 15,10 15,11 14,11 M15,10 16,10 16,11 15,11 M16,10 17,10 17,11 16,11 M17,10 18,10 18,11 17,11 M18,10 19,10 19,11 18,11 M19,10 20,10 20,11 19,11 M20,10 21,10 21,11 20,11 M11,11 12,11 12,12 11,12 M12,11 13,11 13,12 12,12 M13,11 14,11 14,12 13,12 M14,11 15,11 15,12 14,12 M15,11 16,11 16,12 15,12 M16,11 17,11 17,12 16,12 M17,11 18,11 18,12 17,12 M18,11 19,11 19,12 18,12 M19,11 20,11 20,12 19,12 M20,11 21,11 21,12 20,12 M8,12 9,12 9,13 8,13 M9,12 10,12 10,13 9,13 M10,12 11,12 11,13 10,13 M11,12 12,12 12,13 11,13 M12,12 13,12 13,13 12,13 M13,12 14,12 14,13 13,13 M14,12 15,12 15,13 14,13 M15,12 16,12 16,13 15,13 M16,12 17,12 17,13 16,13 M17,12 18,12 18,13 17,13 M18,12 19,12 19,13 18,13 M20,12 21,12 21,13 20,13 M21,12 22,12 22,13 21,13 M5,13 6,13 6,14 5,14 M6,13 7,13 7,14 6,14 M7,13 8,13 8,14 7,14 M8,13 9,13 9,14 8,14 M9,13 10,13 10,14 9,14 M10,13 11,13 11,14 10,14 M11,13 12,13 12,14 11,14 M12,13 13,13 13,14 12,14 M13,13 14,13 14,14 13,14 M14,13 15,13 15,14 14,14 M15,13 16,13 16,14 15,14 M16,13 17,13 17,14 16,14 M5,14 6,14 6,15 5,15 M5,15 6,15 6,16 5,16 M5,18 6,18 6,19 5,19 M5,19 6,19 6,20 5,20 M5,20 6,20 6,21 5,21 M5,21 6,21 6,22 5,22 M5,22 6,22 6,23 5,23 M7,22 8,22 8,23 7,23 M8,18 9,18 9,19 8,19 M8,19 9,19 9,20 8,20 M12,17 13,17 13,18 12,18 M12,18 13,18 13,19 12,19 M14,17 15,17 15,18 14,18 M13,17 14,17 14,18 13,18 M13,18 14,18 14,19 13,19 M15,19 16,19 16,20 15,20 M15,18 16,18 16,19 15,19 M14,18 15,18 15,19 14,19 M14,21 15,21 15,22 14,22 M15,21 16,21 16,22 15,22 M15,20 16,20 16,21 15,21 M13,21 14,21 14,22 13,22 M13,19 14,19 14,20 13,20 M14,20 15,20 15,21 14,21 M14,19 15,19 15,20 14,20 M13,20 14,20 14,21 13,21 M12,21 13,21 13,22 12,22 M9,22 10,22 10,23 9,23 M8,22 9,22 9,23 8,23 M8,20 9,20 9,21 8,21 M10,20 11,20 11,21 10,21 M10,19 11,19 11,20 10,20 M11,19 12,19 12,20 11,20 M12,19 13,19 13,20 12,20 M12,20 13,20 13,21 12,21 M11,20 12,20 12,21 11,21 M11,21 12,21 12,22 11,22 M10,21 11,21 11,22 10,22 M9,20 10,20 10,21 9,21 M9,21 10,21 10,22 9,22 M8,21 9,21 9,22 8,22 M7,21 8,21 8,22 7,22 M7,20 8,20 8,21 7,21 M7,19 8,19 8,20 7,20 M7,18 8,18 8,19 7,19 M7,17 8,17 8,18 7,18 M7,16 8,16 8,17 7,17 M7,14 8,14 8,15 7,15 M6,14 7,14 7,15 6,15 M5,16 6,16 6,17 5,17 M5,17 6,17 6,18 5,18 M6,22 7,22 7,23 6,23 M6,21 7,21 7,22 6,22 M6,20 7,20 7,21 6,21 M6,19 7,19 7,20 6,20 M6,18 7,18 7,19 6,19 M6,17 7,17 7,18 6,18 M6,16 7,16 7,17 6,17 M6,15 7,15 7,16 6,16 M7,15 8,15 8,16 7,16 M10,17 11,17 11,18 10,18 M9,19 10,19 10,20 9,20 M9,18 10,18 10,19 9,19 M9,16 10,16 10,17 9,17 M10,16 11,16 11,17 10,17 M11,17 12,17 12,18 11,18 M11,18 12,18 12,19 11,19 M10,18 11,18 11,19 10,19 M9,17 10,17 10,18 9,18 M8,17 9,17 9,18 8,18 M8,16 9,16 9,17 8,17 M9,15 10,15 10,16 9,16 M8,15 9,15 9,16 8,16 M8,14 9,14 9,15 8,15 M9,14 10,14 10,15 9,15 M10,14 11,14 11,15 10,15 M11,14 12,14 12,15 11,15 M12,14 13,14 13,15 12,15 M13,14 14,14 14,15 13,15 M14,14 15,14 15,15 14,15 M15,14 16,14 16,15 15,15 M16,14 17,14 17,15 16,15 M17,14 18,14 18,15 17,15 M17,13 18,13 18,14 17,14 M18,13 19,13 19,14 18,14 M20,13 21,13 21,14 20,14 M22,14 23,14 23,15 22,15 M22,13 23,13 23,14 22,14 M23,13 24,13 24,14 23,14 M23,14 24,14 24,15 23,15 M23,15 24,15 24,16 23,16 M23,16 24,16 24,17 23,17 M23,17 24,17 24,18 23,18 M23,18 24,18 24,19 23,19 M23,19 24,19 24,20 23,20 M23,20 24,20 24,21 23,21 M23,21 24,21 24,22 23,22 M23,22 24,22 24,23 23,23 M22,18 23,18 23,19 22,19 M22,19 23,19 23,20 22,20 M22,22 23,22 23,23 22,23 M22,21 23,21 23,22 22,22 M22,20 23,20 23,21 22,21 M21,23 22,23 22,24 21,24 M21,20 22,20 22,21 21,21 M21,19 22,19 22,20 21,20 M21,18 22,18 22,19 21,19 M21,17 22,17 22,18 21,18 M21,16 22,16 22,17 21,17 M21,15 22,15 22,16 21,16 M21,13 22,13 22,14 21,14 M21,14 22,14 22,15 21,15 M20,18 21,18 21,19 20,19 M20,19 21,19 21,20 20,20 M20,20 21,20 21,21 20,21 M20,17 21,17 21,18 20,18 M20,16 21,16 21,17 20,17 M20,15 21,15 21,16 20,16 M20,14 21,14 21,15 20,15 M19,12 20,12 20,13 19,13 M19,13 20,13 20,14 19,14 M19,14 20,14 20,15 19,15 M19,16 20,16 20,17 19,17 M19,17 20,17 20,18 19,18 M19,18 20,18 20,19 19,19 M19,19 20,19 20,20 19,20 M19,20 20,20 20,21 19,21 M18,19 19,19 19,20 18,20 M19,15 20,15 20,16 19,16 M18,14 19,14 19,15 18,15 M18,15 19,15 19,16 18,16 M18,16 19,16 19,17 18,17 M18,18 19,18 19,19 18,19 M18,17 19,17 19,18 18,18 M17,15 18,15 18,16 17,16 M16,15 17,15 17,16 16,16 M15,15 16,15 16,16 15,16 M14,15 15,15 15,16 14,16 M13,15 14,15 14,16 13,16 M12,15 13,15 13,16 12,16 M10,15 11,15 11,16 10,16 M11,15 12,15 12,16 11,16 M11,16 12,16 12,17 11,17 M12,16 13,16 13,17 12,17 M13,16 14,16 14,17 13,17 M14,16 15,16 15,17 14,17 M15,16 16,16 16,17 15,17 M16,16 17,16 17,17 16,17 M17,16 18,16 18,17 17,17 M17,17 18,17 18,18 17,18 M17,18 18,18 18,19 17,19 M17,19 18,19 18,20 17,20 M15,17 16,17 16,18 15,18 M16,17 17,17 17,18 16,18 M16,18 17,18 17,19 16,19 M16,19 17,19 17,20 16,20 M16,20 17,20 17,21 16,21 M16,21 17,21 17,22 16,22 M18,20 19,20 19,21 18,21 M17,20 18,20 18,21 17,21 M17,21 18,21 18,22 17,22 M18,21 19,21 19,22 18,22 M19,21 20,21 20,22 19,22 M20,21 21,21 21,22 20,22 M21,21 22,21 22,22 21,22 M21,22 22,22 22,23 21,23 M20,22 21,22 21,23 20,23 M20,23 21,23 21,24 20,24 M19,23 20,23 20,24 19,24 M19,22 20,22 20,23 19,23 M10,22 11,22 11,23 10,23 M11,22 12,22 12,23 11,23 M12,22 13,22 13,23 12,23 M13,22 14,22 14,23 13,23 M14,22 15,22 15,23 14,23 M15,22 16,22 16,23 15,23 M16,22 17,22 17,23 16,23 M17,22 18,22 18,23 17,23 M18,22 19,22 19,23 18,23 " fill="#dedede"></path></svg>